<?xml version="1.0" encoding="UTF-8"?>
<svg width="1440px" height="1024px" viewBox="0 0 1440 1024" version="1.1" xmlns="http://www.w3.org/2000/svg" xmlns:xlink="http://www.w3.org/1999/xlink">
    <!-- Generator: Sketch 55.2 (78181) - https://sketchapp.com -->
    <title>Individual Login Page</title>
    <desc>Created with Sketch.</desc>
    <defs>
        <path d="M1,5 L1,50 C1,52.209139 2.790861,54 5,54 L257,54 C259.209139,54 261,52.209139 261,50 L261,5 C261,2.790861 259.209139,1 257,1 L5,1 C2.790861,1 1,2.790861 1,5 Z M4,0 L258,0 C260.209139,-4.05812251e-16 262,1.790861 262,4 L262,51 C262,53.209139 260.209139,55 258,55 L4,55 C1.790861,55 2.705415e-16,53.209139 0,51 L0,4 C-2.705415e-16,1.790861 1.790861,4.05812251e-16 4,0 Z" id="path-1"></path>
        <path d="M1,5 L1,35 C1,37.209139 2.790861,39 5,39 L141,39 C143.209139,39 145,37.209139 145,35 L145,5 C145,2.790861 143.209139,1 141,1 L5,1 C2.790861,1 1,2.790861 1,5 Z M4,0 L142,0 C144.209139,-4.05812251e-16 146,1.790861 146,4 L146,36 C146,38.209139 144.209139,40 142,40 L4,40 C1.790861,40 2.705415e-16,38.209139 0,36 L0,4 C-2.705415e-16,1.790861 1.790861,4.05812251e-16 4,0 Z" id="path-3"></path>
    </defs>
    <g id="Individual-Login-Page" stroke="none" stroke-width="1" fill="none" fill-rule="evenodd">
        <g id="Button" transform="translate(587.500000, 210.000000)">
            <g id="Atoms-/-Buttons-/-_Resources-/-Shapes-/-Radius_bordered">
                <mask id="mask-2" fill="white">
                    <use xlink:href="#path-1"></use>
                </mask>
                <use id="Mask" fill="#979797" fill-rule="nonzero" xlink:href="#path-1"></use>
                <g id="Atoms-/-Colors-/-Accent" mask="url(#mask-2)" fill="#424B5A" fill-rule="evenodd">
                    <rect id="Rectangle-5" x="0" y="0" width="262" height="55"></rect>
                </g>
            </g>
            <g id="Atoms-/-Buttons-/-_Labels-/-Accent" transform="translate(47.000000, 21.000000)" fill="#424B5A" font-family="HelveticaNeue, Helvetica Neue" font-size="12" font-weight="normal">
                <text id="↪✏️">
                    <tspan x="50.116" y="11">SIGN IN WITH ORCID</tspan>
                </text>
            </g>
            <g id="ORCIDiD_iconvector" transform="translate(33.500000, 9.500000)" fill-rule="nonzero">
                <path d="M36,18 C36,27.9421875 27.9421875,36 18,36 C8.0578125,36 0,27.9421875 0,18 C0,8.0578125 8.0578125,0 18,0 C27.9421875,0 36,8.0578125 36,18 Z" id="Path" fill="#505D68"></path>
                <g id="Group" transform="translate(9.562500, 6.468750)" fill="#FFFFFF">
                    <polygon id="Path" points="2.5734375 19.715625 0.4078125 19.715625 0.4078125 4.6546875 2.5734375 4.6546875 2.5734375 11.4609375 2.5734375 19.715625"></polygon>
                    <path d="M5.7515625,4.6546875 L11.6015625,4.6546875 C17.1703125,4.6546875 19.6171875,8.634375 19.6171875,12.1921875 C19.6171875,16.059375 16.59375,19.7296875 11.6296875,19.7296875 L5.7515625,19.7296875 L5.7515625,4.6546875 Z M7.9171875,17.775 L11.3625,17.775 C16.2703125,17.775 17.3953125,14.0484375 17.3953125,12.1921875 C17.3953125,9.16875 15.46875,6.609375 11.25,6.609375 L7.9171875,6.609375 L7.9171875,17.775 Z" id="Shape"></path>
                    <path d="M2.9109375,1.51875 C2.9109375,2.2921875 2.278125,2.9390625 1.490625,2.9390625 C0.703125,2.9390625 0.0703125,2.2921875 0.0703125,1.51875 C0.0703125,0.73125 0.703125,0.0984375 1.490625,0.0984375 C2.278125,0.0984375 2.9109375,0.7453125 2.9109375,1.51875 Z" id="Path"></path>
                </g>
            </g>
        </g>
        <g id="DataONE-Navbar" transform="translate(0.000000, 1.000000)">
            <g id="Navbar" transform="translate(0.000000, -1.000000)">
                <g id="Background" fill="#F2F5F7">
                    <rect id="Atoms-/-Colors-/-Black" x="0" y="0" width="1440" height="61"></rect>
                </g>
                <g id="Button" transform="translate(1236.000000, 10.500000)">
                    <g id="Atoms-/-Buttons-/-_Resources-/-Shapes-/-Radius_bordered">
                        <mask id="mask-4" fill="white">
                            <use xlink:href="#path-3"></use>
                        </mask>
                        <use id="Mask" fill="#979797" fill-rule="nonzero" xlink:href="#path-3"></use>
                        <g id="Atoms-/-Colors-/-Accent" mask="url(#mask-4)" fill="#424B5A" fill-rule="evenodd">
                            <rect id="Rectangle-5" x="0" y="0" width="146" height="40"></rect>
                        </g>
                    </g>
                    <g id="Atoms-/-Buttons-/-_Labels-/-Accent" transform="translate(16.000000, 13.500000)" fill="#424B5A" font-family="HelveticaNeue, Helvetica Neue" font-size="12" font-weight="normal">
                        <text id="↪✏️">
                            <tspan x="35.118" y="11">SIGN IN</tspan>
                        </text>
                    </g>
                </g>
                <g id="Links" transform="translate(261.500000, 24.000000)" fill="#505D68" font-family="Ubuntu" font-size="12" font-weight="normal">
                    <text id="#6">
                        <tspan x="582.448372" y="11">DATA</tspan>
                    </text>
                    <text id="#5">
                        <tspan x="441.058368" y="11">EDUCATION</tspan>
                    </text>
                    <text id="#4">
                        <tspan x="318.328363" y="11">RESOURCES</tspan>
                    </text>
                    <text id="#3">
                        <tspan x="191.224131" y="11">PARTICIPATE</tspan>
                    </text>
                    <text id="#2">
                        <tspan x="99.8513786" y="11">NEWS</tspan>
                    </text>
                    <text id="#1">
                        <tspan x="3.8423326" y="11">ABOUT</tspan>
                    </text>
                </g>
                <g id="DataONE-Logo" transform="translate(53.500000, 16.500000)" fill="#505D68">
                    <path d="M1.42108547e-14,27.5451892 C1.18508108,27.7010811 2.93243243,27.8577297 5.39718919,27.8577297 C9.5147027,27.8577297 12.8845405,26.9844324 15.0995676,25.1432432 C17.1276757,23.4284324 18.5927568,20.6511351 18.5927568,16.6274595 C18.5927568,12.9140541 17.22,10.3244324 15.036,8.7027027 C13.0086486,7.1732973 10.419027,6.45664865 6.42637838,6.45664865 C4.02443243,6.45664865 1.74659459,6.61178378 1.42108547e-14,6.8932973 L1.42108547e-14,27.5451892 Z M4.77286486,10.2934054 C5.17848649,10.1995676 5.86486486,10.1057297 6.92583784,10.1057297 C11.0115676,10.1057297 13.5701622,12.4145946 13.5391351,16.7825946 C13.5391351,21.8059459 10.7315676,24.1761081 6.42637838,24.1450811 C5.83308108,24.1450811 5.17848649,24.1450811 4.77286486,24.052 L4.77286486,10.2934054 Z M31.9442162,18.623027 C31.9442162,15.036 30.3217297,12.0407568 25.2363243,12.0407568 C22.4597838,12.0407568 20.3703784,12.7891892 19.3086486,13.3817297 L20.1827027,16.4397838 C21.1808649,15.8154595 22.8343784,15.284973 24.3948108,15.284973 C26.7339459,15.284973 27.1713514,16.4397838 27.1713514,17.251027 L27.1713514,17.468973 C21.7741622,17.4379459 18.2174054,19.3404324 18.2174054,23.3035676 C18.2174054,25.7365405 20.0578378,27.9818378 23.1461622,27.9818378 C24.9555676,27.9818378 26.5152432,27.3272432 27.5141622,26.1111351 L27.608,26.1111351 L27.888,27.639027 L32.1629189,27.639027 C32.007027,26.7975135 31.9442162,25.392973 31.9442162,23.9271351 L31.9442162,18.623027 Z M27.3264865,22.0859459 C27.3264865,22.3674595 27.2954595,22.6482162 27.2334054,22.8979459 C26.9208649,23.8650811 25.9544865,24.6445405 24.7686486,24.6445405 C23.7076757,24.6445405 22.8964324,24.052 22.8964324,22.8351351 C22.8964324,20.9947027 24.8307027,20.4014054 27.3264865,20.4331892 L27.3264865,22.0859459 Z M33.7528649,9.51318919 L33.7528649,12.3835676 L31.724,12.3835676 L31.724,15.8782703 L33.7528649,15.8782703 L33.7528649,22.116973 C33.7528649,24.2699459 34.1895135,25.7365405 35.0620541,26.6408649 C35.8112432,27.4210811 37.0901622,27.9818378 38.6188108,27.9818378 C39.9605405,27.9818378 41.0828108,27.7956757 41.7071351,27.5451892 L41.6761081,23.9581622 C41.2084324,24.052 40.9269189,24.083027 40.2715676,24.083027 C38.8367568,24.083027 38.4001081,23.2407568 38.4001081,21.3995676 L38.4001081,15.8782703 L41.800973,15.8782703 L41.800973,12.3835676 L38.4001081,12.3835676 L38.4001081,8.23502703 L33.7528649,9.51318919 Z M54.932973,18.623027 C54.932973,15.036 53.3112432,12.0407568 48.2258378,12.0407568 C45.4500541,12.0407568 43.3598919,12.7891892 42.2996757,13.3817297 L43.1722162,16.4397838 C44.1703784,15.8154595 45.8238919,15.284973 47.3835676,15.284973 C49.7242162,15.284973 50.1608649,16.4397838 50.1608649,17.251027 L50.1608649,17.468973 C44.7636757,17.4379459 41.2069189,19.3404324 41.2069189,23.3035676 C41.2069189,25.7365405 43.0473514,27.9818378 46.1356757,27.9818378 C47.9458378,27.9818378 49.5062703,27.3272432 50.5036757,26.1111351 L50.5975135,26.1111351 L50.8782703,27.639027 L55.1516757,27.639027 C54.9957838,26.7975135 54.932973,25.392973 54.932973,23.9271351 L54.932973,18.623027 Z M50.316,22.0859459 C50.316,22.3674595 50.2857297,22.6482162 50.2236757,22.8979459 C49.9111351,23.8650811 48.944,24.6445405 47.7581622,24.6445405 C46.6979459,24.6445405 45.8867027,24.052 45.8867027,22.8351351 C45.8867027,20.9947027 47.820973,20.4014054 50.316,20.4331892 L50.316,22.0859459 L50.316,22.0859459 Z" id="Fill-4"></path>
                    <path d="M86.992973,27.9818378 L86.992973,13.8516757 C86.992973,9.21124324 86.9513514,6.18648649 86.744,2.74702703 L86.8264865,2.70464865 C88.2771892,5.56518919 90.1834595,8.5067027 92.2547027,11.7380541 L102.905297,27.9818378 L104.769946,27.9818378 L104.769946,0.052972973 L102.822054,0.052972973 L102.822054,13.9341622 C102.822054,18.3271351 102.863676,21.5168649 103.15427,25.2885405 L103.071027,25.3301622 C101.703568,22.6361081 100.087135,20.0260541 97.8494054,16.5442162 L86.9513514,0.052972973 L85.0867027,0.052972973 L85.0867027,27.9818378 L86.992973,27.9818378 Z M119.065838,12.4425946 L107.876432,12.4425946 L107.876432,1.71102703 L119.728757,1.71102703 L119.728757,0.052972973 L105.929297,0.052972973 L105.929297,27.9818378 L120.391676,27.9818378 L120.391676,26.3245405 L107.876432,26.3245405 L107.876432,14.0998919 L119.065838,14.0998919 L119.065838,12.4425946 L119.065838,12.4425946 Z" id="Fill-5"></path>
                    <path d="M83.4263784,13.9894054 L82.6022703,13.9894054 C82.6015135,17.4008649 81.2219459,20.4823784 78.9864865,22.7178378 C76.7502703,24.9540541 73.6687568,26.3343784 70.2572973,26.3343784 C66.8458378,26.3343784 63.7650811,24.9540541 61.5288649,22.7178378 C59.2934054,20.4823784 57.9138378,17.4008649 57.9130811,13.9894054 C57.9138378,10.5794595 59.2934054,7.49945946 61.5288649,5.26248649 C63.7650811,3.02778378 66.8458378,1.64821622 70.2572973,1.64821622 C73.6687568,1.64821622 76.7502703,3.02778378 78.9864865,5.26248649 C81.2219459,7.49945946 82.6015135,10.5794595 82.6022703,13.9894054 L84.2504865,13.9894054 C84.248973,6.26367568 77.9860541,0.000756756757 70.2572973,5.68434189e-14 C62.5300541,0.000756756757 56.2663784,6.26367568 56.2656216,13.9894054 C56.2663784,21.7181622 62.5300541,27.9810811 70.2572973,27.9818378 C77.9860541,27.9810811 84.248973,21.7181622 84.2504865,13.9894054 L83.4263784,13.9894054" id="Fill-6"></path>
                    <path d="M64.8782703,3.75578378 C64.6936216,3.86021622 64.4272432,4.04108108 64.2872432,4.15686486 C64.1464865,4.27264865 63.9527568,4.4467027 63.8558919,4.54356757 C63.7597838,4.63967568 63.644,4.77967568 63.6008649,4.85383784 C63.5562162,4.92875676 63.5085405,5.0452973 63.4941622,5.11491892 C63.4805405,5.18302703 63.4109189,5.30940541 63.339027,5.39567568 C63.2678919,5.48043243 63.1278919,5.64086486 63.028,5.75135135 C62.9288649,5.86183784 62.7669189,6.05102703 62.6677838,6.17210811 C62.5678919,6.29394595 62.4483243,6.47783784 62.4014054,6.58302703 C62.3552432,6.68745946 62.2735135,6.93416216 62.2212973,7.12940541 C62.1698378,7.32616216 62.1766486,7.56 62.2364324,7.65081081 C62.296973,7.74162162 62.3196757,7.98983784 62.2863784,8.20324324 C62.2530811,8.41437838 62.2447568,8.64972973 62.2651892,8.72389189 C62.2886486,8.79805405 62.2909189,8.89794595 62.2712432,8.94486486 C62.2523243,8.99178378 62.2046486,9.02810811 62.1668108,9.02508108 C62.1274595,9.02281081 62.1055135,9.05459459 62.1161081,9.0947027 C62.1274595,9.13632432 62.1857297,9.21881081 62.2462703,9.28086486 C62.3068108,9.34064865 62.3658378,9.42464865 62.3764324,9.46627027 C62.3877838,9.50713514 62.3650811,9.57902703 62.3264865,9.6267027 C62.2878919,9.67362162 62.3143784,9.83859459 62.387027,9.99221622 C62.4581622,10.1458378 62.555027,10.2502703 62.6027027,10.2222703 C62.6496216,10.195027 62.6768649,10.0974054 62.6624865,10.0065946 C62.6488649,9.91654054 62.6170811,9.80454054 62.5921081,9.75686486 C62.5671351,9.70994595 62.5474595,9.56313514 62.5474595,9.4307027 C62.5474595,9.29827027 62.527027,9.12043243 62.5028108,9.03416216 C62.4778378,8.94864865 62.4574054,8.80562162 62.4574054,8.71481081 C62.4574054,8.62248649 62.4642162,8.48778378 62.4725405,8.41362162 C62.4808649,8.3387027 62.5277838,8.27135135 62.5777297,8.26378378 C62.6261622,8.2547027 62.6677838,8.33794595 62.6677838,8.44843243 C62.6677838,8.55816216 62.6738378,8.72313514 62.6829189,8.8147027 C62.6904865,8.90551351 62.7154595,9.02962162 62.7374054,9.09016216 C62.7593514,9.15145946 62.7934054,9.24756757 62.8130811,9.30508108 C62.832,9.36335135 62.8516757,9.46021622 62.8577297,9.52151351 C62.863027,9.5812973 62.9023784,9.69102703 62.9424865,9.76140541 C62.9848649,9.8332973 63.0612973,9.98843243 63.1135135,10.1064865 C63.1657297,10.2252973 63.2224865,10.4038919 63.2391351,10.503027 C63.2557838,10.6021622 63.2376216,10.7572973 63.199027,10.8488649 C63.1604324,10.9389189 63.2058378,11.1243243 63.2989189,11.2597838 C63.3927568,11.3944865 63.5827027,11.5882162 63.7204324,11.6903784 C63.8581622,11.7917838 64.0957838,11.9476757 64.2463784,12.0362162 C64.3977297,12.124 64.6330811,12.2208649 64.7685405,12.2511351 C64.9032432,12.2814054 65.0629189,12.2791351 65.1242162,12.2465946 C65.1855135,12.2140541 65.2861622,12.1913514 65.3497297,12.1974054 C65.4132973,12.2019459 65.5078919,12.2405405 65.5601081,12.2821622 C65.6123243,12.3237838 65.6978378,12.4123243 65.7500541,12.4774054 C65.803027,12.5432432 65.8824865,12.6476757 65.9263784,12.7074595 C65.9695135,12.768 66.0671351,12.8149189 66.1420541,12.8134054 C66.2162162,12.8103784 66.3834595,12.8648649 66.5128649,12.9337297 C66.643027,13.0025946 66.8632432,13.1312432 67.0032432,13.2197838 C67.144,13.3083243 67.3392432,13.4634595 67.4353514,13.5648649 C67.5314595,13.6662703 67.5685405,13.7888649 67.5148108,13.8357838 C67.4633514,13.8827027 67.5579459,13.9931892 67.7267027,14.080973 C67.8939459,14.1695135 68.0384865,14.2784865 68.0468108,14.3223784 C68.0543784,14.3655135 68.1224865,14.4222703 68.1966486,14.448 C68.2715676,14.4722162 68.3835676,14.5085405 68.4478919,14.5274595 C68.5114595,14.5471351 68.5765405,14.5993514 68.5931892,14.6424865 C68.6098378,14.6871351 68.7294054,14.7370811 68.8588108,14.752973 C68.9882162,14.7696216 69.079027,14.7317838 69.0593514,14.668973 C69.0404324,14.6046486 69.0722162,14.5236757 69.1297297,14.4873514 C69.1872432,14.4517838 69.2598919,14.3972973 69.2901622,14.367027 C69.3204324,14.3367568 69.3787027,14.3420541 69.4203243,14.3776216 C69.4619459,14.4131892 69.4997838,14.5017297 69.5050811,14.5728649 C69.5111351,14.644 69.5739459,14.7476757 69.6458378,14.8036757 C69.716973,14.8589189 69.7782703,14.9512432 69.7812973,15.0095135 C69.7843243,15.067027 69.7865946,15.2153514 69.7865946,15.3394595 C69.7865946,15.4635676 69.8017297,15.6202162 69.8206486,15.6852973 C69.8403243,15.7511351 69.804,15.8555676 69.7411892,15.9161081 C69.6776216,15.9766486 69.5557838,16.1052973 69.4695135,16.2014054 C69.3847568,16.299027 69.2387027,16.4428108 69.1441081,16.523027 C69.051027,16.6024865 68.9382703,16.8219459 68.8943784,17.0088649 C68.8497297,17.1965405 68.7952432,17.475027 68.7740541,17.6263784 C68.7521081,17.7777297 68.7354595,17.9472432 68.7392432,18.0017297 C68.7415135,18.056973 68.8020541,18.1947027 68.8731892,18.3074595 C68.9458378,18.420973 69.0585946,18.5806486 69.1244324,18.6638919 C69.191027,18.7456216 69.328,18.9378378 69.4301622,19.0891892 C69.5315676,19.2412973 69.7101622,19.5296216 69.8259459,19.7316757 C69.9417297,19.932973 70.0779459,20.1456216 70.1278919,20.2031351 C70.1770811,20.2606486 70.2958919,20.3968649 70.3935135,20.5043243 C70.4896216,20.611027 70.6924324,20.7707027 70.8437838,20.8584865 C70.9958919,20.947027 71.2229189,21.0567568 71.3500541,21.1044324 C71.4771892,21.1505946 71.6058378,21.3231351 71.6361081,21.4850811 C71.6663784,21.6477838 71.6618378,21.8944865 71.6262703,22.032973 C71.5899459,22.1707027 71.5241081,22.4143784 71.4802162,22.5740541 C71.4370811,22.7337297 71.3424865,22.9887568 71.2698378,23.1401081 C71.1987027,23.2914595 71.1305946,23.4685405 71.12,23.5313514 C71.1086486,23.5941622 71.0435676,23.7606486 70.9739459,23.9029189 C70.9050811,24.0429189 70.7968649,24.2237838 70.7332973,24.3032432 C70.6704865,24.3842162 70.5758919,24.5635676 70.5236757,24.7043243 C70.4707027,24.8450811 70.3715676,25.0100541 70.3027027,25.0705946 C70.2338378,25.1311351 70.2429189,25.2325405 70.3223784,25.2961081 C70.4033514,25.3589189 70.6288649,25.4134054 70.8241081,25.4165439 C71.0193514,25.4194595 71.3243243,25.3604324 71.5014054,25.2862703 C71.676973,25.2121081 71.8873514,25.0766486 71.9668108,24.9850811 C72.047027,24.8927568 72.2437838,24.7542703 72.4034595,24.6732973 C72.5638919,24.5938378 72.859027,24.4727568 73.0603243,24.4038919 C73.2616216,24.3342703 73.5484324,24.2078919 73.696,24.1223784 C73.8450811,24.0368649 73.9987027,23.9195676 74.0372973,23.8620541 C74.0758919,23.8045405 74.2287568,23.7023784 74.3785946,23.6372973 C74.5269189,23.5714595 74.8288649,23.3905946 75.0498378,23.2354595 C75.2708108,23.0818378 75.5727568,22.8464865 75.7218378,22.7148108 C75.8709189,22.5816216 76.0578378,22.3500541 76.1372973,22.1979459 C76.2175135,22.0465946 76.6034595,21.7507027 76.9947027,21.5410811 C77.3867027,21.3307027 77.8021622,21.0242162 77.9179459,20.8584865 C78.0337297,20.6942703 78.3265946,20.1887568 78.5687568,19.7362162 C78.5687568,19.7362162 78.5687568,19.7362162 78.5793514,19.6862703 C78.5899459,19.6370811 78.5899459,19.6370811 78.5899459,19.6370811 C78.676973,19.3268108 78.9251892,18.7925405 79.1408649,18.4482162 C79.3557838,18.1038919 79.5336216,17.668 79.5367939,17.4803243 C79.5396757,17.2926486 79.495027,17.139027 79.436,17.139027 C79.3792432,17.139027 79.2165405,17.0444324 79.0757838,16.9286486 C78.935027,16.8136216 78.6868108,16.7394595 78.5241081,16.7636757 C78.3614054,16.7886486 78.1419459,16.7394595 78.0382703,16.6531892 C77.9338378,16.5669189 77.7204324,16.4662703 77.5668108,16.4269189 C77.4124324,16.3883243 77.2542703,16.2490811 77.2164324,16.1158919 C77.1778378,15.9834595 77.0665946,15.8434595 76.9697297,15.8063784 C76.8743784,15.7677838 76.7744865,15.6315676 76.7495135,15.5051892 C76.7245405,15.3780541 76.5353514,15.1843243 76.3287568,15.0745946 C76.1221622,14.9633514 75.8557838,14.8876757 75.736973,14.9035676 C75.6181622,14.920973 75.404,14.8884324 75.260973,14.8331892 C75.1179459,14.7779459 74.8712432,14.6099459 74.7145946,14.4570811 C74.5571892,14.3064865 74.3785946,14.0877838 74.3180541,13.972 C74.2567568,13.8554595 74.1212973,13.7502703 74.0176216,13.7366486 C73.9124324,13.7222703 73.6740541,13.72 73.4863784,13.7305946 C73.2987027,13.7411892 73.0345946,13.7616216 72.8991351,13.7752432 C72.7644324,13.7896216 72.5638919,13.7646486 72.4534054,13.7207568 C72.3429189,13.6761081 72.1643243,13.5565405 72.0568649,13.4543784 C71.9494054,13.3522162 71.7647568,13.268973 71.6451892,13.268973 C71.5278919,13.268973 71.2857297,13.3363243 71.1094054,13.4188108 C70.9338378,13.5028108 70.6667027,13.611027 70.5183784,13.6602162 C70.3692973,13.7094054 70.2247568,13.8501622 70.1975135,13.9712432 C70.1695135,14.0930811 70.0612973,14.2194595 69.9568649,14.2527568 C69.8516757,14.2852973 69.6965405,14.2648649 69.611027,14.2065946 C69.5255135,14.1490811 69.3787027,14.1021622 69.2848649,14.1021622 C69.191027,14.1021622 69.0487568,14.1445405 68.9692973,14.1975135 C68.8898378,14.248973 68.708973,14.2398919 68.568973,14.1763243 C68.4274595,14.1135135 68.2579459,13.9848649 68.1921081,13.891027 C68.1262703,13.7971892 68.0944865,13.5648649 68.1224865,13.3749189 C68.148973,13.184973 68.2216216,12.9276757 68.2821622,12.8043243 C68.3434595,12.6794595 68.2708108,12.4925405 68.1224865,12.3873514 C67.9726486,12.2821622 67.7668108,12.2170811 67.6654054,12.2428108 C67.5624865,12.267027 67.34,12.2912432 67.168973,12.2972973 C66.9979459,12.3018378 66.8988108,12.1572973 66.9487568,11.9756757 C66.9987027,11.7948108 67.140973,11.4625946 67.2643243,11.2393514 C67.3884324,11.0161081 67.4020541,10.8117838 67.2938378,10.7837838 C67.1871351,10.7557838 66.9881081,10.7588108 66.8534054,10.7883243 C66.7187027,10.8185946 66.5431351,10.9222703 66.4629189,11.0183784 C66.3827027,11.1152432 66.2676757,11.252973 66.2071351,11.3248649 C66.1465946,11.396 66.0580541,11.4633514 66.0111351,11.4747027 C65.964973,11.4860541 65.8537297,11.5170811 65.7651892,11.5443243 C65.6766486,11.5723243 65.4874595,11.5117838 65.3436757,11.4096216 C65.2006486,11.3074595 65.0447568,11.0713514 64.9985946,10.8836757 C64.9516757,10.696 64.9675676,10.3448649 65.0334054,10.1019459 C65.1,9.85978378 65.1877838,9.54875676 65.2294054,9.41027027 C65.2702703,9.2732973 65.4957838,9.06140541 65.7311351,8.93956757 C65.964973,8.81848649 66.2714595,8.74583784 66.4122162,8.77913514 C66.5522162,8.81167568 66.7754595,8.83740541 66.9086486,8.83437838 C67.0410811,8.83135135 67.1803243,8.76854054 67.2196757,8.69437838 C67.2582703,8.62021622 67.4641081,8.57708108 67.676,8.59827027 C67.8878919,8.62021622 68.1338378,8.64367568 68.2223784,8.64897297 C68.3101622,8.65351351 68.4191351,8.72010811 68.4622703,8.79502703 C68.5069189,8.86918919 68.5379459,8.988 68.5326486,9.05989189 C68.5273514,9.13178378 68.5931892,9.30054054 68.6787027,9.436 C68.7642162,9.5707027 68.852,9.716 68.8731892,9.75610811 C68.8958919,9.79848649 68.8868108,9.85902703 68.8542703,9.89156757 L68.8285405,9.97556757 C68.848973,9.98994595 68.9314595,9.96345946 69.0147027,9.91654054 C69.0971892,9.87037838 69.184973,9.73718919 69.2099459,9.62216216 C69.2341622,9.50486486 69.2258378,9.31189189 69.1895135,9.19005405 C69.1531892,9.06897297 69.079027,8.8707027 69.0245405,8.74886486 C68.9692973,8.62778378 68.9443243,8.46281081 68.9692973,8.38335135 C68.9942703,8.30313514 69.1244324,8.16086486 69.2598919,8.06702703 C69.3945946,7.97318919 69.5754595,7.83318919 69.6602162,7.75675676 C69.7464865,7.67956757 69.940973,7.57362162 70.0915676,7.52064865 C70.2444324,7.46843243 70.3428108,7.33978378 70.3125405,7.23459459 C70.283027,7.13016216 70.2936216,6.95837838 70.3375135,6.85394595 C70.3821622,6.74951351 70.4699459,6.60043243 70.5335135,6.52324324 C70.5970811,6.44605405 70.6621622,6.34691892 70.6788108,6.30227027 C70.6954595,6.25837838 70.8263784,6.19481081 70.9694054,6.16227027 C71.1131892,6.12897297 71.2501622,6.08810811 71.2758919,6.07145946 L71.2955676,5.97686486 C71.2811892,5.94054054 71.2766486,5.86864865 71.284973,5.81567568 C71.2932973,5.76345946 71.3629189,5.69837838 71.4408649,5.67113514 C71.5180541,5.64313514 71.6421622,5.59016216 71.7170811,5.55081081 C71.7904865,5.51221622 71.9055135,5.47589189 71.9713514,5.46983784 C72.0379459,5.4652973 72.0916757,5.49859459 72.0916757,5.54551351 C72.0916757,5.59318919 72.1189189,5.65145946 72.1522162,5.67643243 C72.1855135,5.70064865 72.2581622,5.69610811 72.3134054,5.66508108 C72.3678919,5.63481081 72.4988108,5.58410811 72.6032432,5.55081081 C72.7084324,5.51827027 72.8234595,5.45394595 72.859027,5.41005405 C72.8953514,5.36691892 72.9241081,5.28064865 72.9241081,5.22010811 C72.9241081,5.15881081 72.8181622,5.1187027 72.6887568,5.1292973 C72.5585946,5.14064865 72.3989189,5.12248649 72.3338378,5.08918919 C72.2672432,5.05664865 72.1945946,5.0067027 72.1726486,4.9787027 L72.1022703,4.86443243 C72.0856216,4.82810811 72.0205405,4.79481081 71.9577297,4.78875676 C71.8934054,4.7827027 71.7647568,4.79254054 71.6716757,4.80843243 C71.5770811,4.82508108 71.5498378,4.79405405 71.6111351,4.73881081 C71.6716757,4.68281081 71.8404324,4.62227027 71.9864865,4.60335135 C72.1332973,4.58367568 72.3807568,4.57459459 72.5381622,4.58367568 C72.6948108,4.59124324 72.8711351,4.56627027 72.9294054,4.52767568 C72.9876757,4.48908108 73.0527568,4.46864865 73.0754595,4.48302703 C73.0974054,4.49664865 73.1019459,4.58291892 73.0852973,4.67372973 C73.0686486,4.76378378 73.055027,4.88183784 73.055027,4.93405405 C73.055027,4.98702703 73.1367568,5.03848649 73.2358919,5.04983784 C73.335027,5.06043243 73.5151351,5.07254054 73.636973,5.07405405 C73.7580541,5.07708108 73.8995676,5.05816216 73.9517838,5.03394595 C74.0047568,5.00972973 73.9601081,4.92875676 73.8518919,4.85383784 C73.7444324,4.77967568 73.5862703,4.69643243 73.5015135,4.66918919 C73.416,4.64118919 73.3282162,4.56324324 73.3055135,4.49740541 C73.2843243,4.43156757 73.1851892,4.30745946 73.0852973,4.22194595 C72.9846486,4.13643243 72.8052973,4.02821622 72.6842162,3.98205405 C72.5623784,3.93437838 72.3883243,3.85567568 72.2982703,3.80648649 C72.2067027,3.7572973 72.0651892,3.67254054 71.9819459,3.62032432 C71.8987027,3.56810811 71.7753514,3.48637838 71.7064865,3.44021622 C71.6376216,3.3932973 71.5589189,3.36151351 71.5316757,3.36983784 L71.431027,3.43416216 C71.4037838,3.46216216 71.3107027,3.47881081 71.2251892,3.47048649 C71.1396757,3.46140541 71.0405405,3.41902703 71.0042162,3.37589189 C70.9686486,3.33124324 70.8558919,3.27221622 70.7544865,3.24497297 C70.6515676,3.21697297 70.4669189,3.18594595 70.3428108,3.17459459 C70.2187027,3.164 70.0945946,3.17913514 70.0665946,3.20940541 C70.0385946,3.23967568 70.003027,3.31989189 69.9871351,3.38572973 C69.9697297,3.45081081 69.9863784,3.54162162 70.0219459,3.58551351 C70.0575135,3.62940541 70.0862703,3.69751351 70.0862703,3.73535135 C70.0862703,3.77394595 70.0083243,3.83221622 69.9114595,3.86551351 C69.8153514,3.89956757 69.7343784,3.96918919 69.7313514,4.02140541 C69.7283243,4.07437838 69.7010811,4.17427027 69.6708108,4.24237838 C69.6405405,4.31124324 69.5701622,4.35437838 69.5156757,4.33772973 C69.4604324,4.32183784 69.3703784,4.27113514 69.3151351,4.22724324 L69.3151351,4.16745946 C69.3370811,4.09027027 69.3575135,4.00475676 69.3597838,3.97675676 C69.3628108,3.94875676 69.3015135,3.91545946 69.2250811,3.90108108 C69.1478919,3.88745946 68.9783784,3.85189189 68.848973,3.82086486 C68.7188108,3.79059459 68.4985946,3.72627027 68.3578378,3.67556757 C68.2170811,3.62637838 68.1020541,3.55145946 68.1020541,3.51059459 C68.1020541,3.46897297 68.1474595,3.40313514 68.2027027,3.36454054 C68.2571892,3.32594595 68.3850811,3.26086486 68.488,3.22 C68.5894054,3.17762162 68.7316757,3.12843243 68.8035676,3.10875676 C68.8747027,3.08983784 69.048,3.08756757 69.1887568,3.10421622 C69.3295135,3.12010811 69.5171892,3.13902703 69.6057297,3.14432432 C69.6942703,3.14962162 69.7623784,3.136 69.7563243,3.11405405 C69.7502703,3.09210811 69.7033514,3.05124324 69.6511351,3.024 C69.5981622,2.99675676 69.5648649,2.94908108 69.5762162,2.91881081 C69.5868108,2.88854054 69.6412973,2.84162162 69.6957838,2.81362162 C69.7517838,2.78637838 69.8509189,2.76367568 69.9167568,2.76367568 C69.9825946,2.76367568 70.0507027,2.78410811 70.0665946,2.80832432 L70.0522162,2.89913514 L69.996973,2.99372973 C69.9916757,3.02172973 70.0522162,3.03762162 70.1316757,3.03005405 C70.2126486,3.02097297 70.3185946,3.01643243 70.3677838,3.01945946 C70.4177297,3.02248649 70.535027,3.03913514 70.6288649,3.05881081 C70.7219459,3.07848649 70.9005405,3.11935135 71.0246486,3.14962162 C71.1495135,3.17989189 71.3197838,3.20637838 71.4060541,3.20940541 C71.4908108,3.21167568 71.5672432,3.16021622 71.5755676,3.09437838 C71.5838919,3.02854054 71.5687568,2.93621622 71.5407568,2.88854054 C71.5127568,2.84162162 71.3931892,2.77654054 71.2758919,2.74324324 C71.1563243,2.7107027 70.9179459,2.66908108 70.7446486,2.65318919 C70.5705946,2.63578378 70.3783784,2.59945946 70.3178378,2.57221622 C70.2572973,2.54497297 70.2012973,2.50259459 70.192973,2.47686486 C70.1838919,2.45189189 69.8774054,2.44583784 69.5111351,2.46248649 C69.1441081,2.47913514 68.5387027,2.55102703 68.1671351,2.62291892 C67.7948108,2.69405405 67.1878919,2.84767568 66.8178378,2.96345946 C66.4485405,3.07924324 65.936973,3.26162162 65.6804324,3.36983784 C65.4231351,3.47805405 65.0629189,3.65135135 64.8782703,3.75578378" id="Fill-7"></path>
                    <path d="M69.0207568,10.3425946 C68.9655135,10.3335135 68.8398919,10.3335135 68.7422703,10.3425946 C68.6454054,10.3509189 68.4948108,10.3584865 68.407027,10.36 C68.3207568,10.3622703 68.1989189,10.4008649 68.1368649,10.4477838 C68.0748108,10.4924324 68.0044324,10.5650811 67.9787027,10.608973 C67.9544865,10.6521081 67.9522162,10.7012973 67.9749189,10.7179459 C67.9976216,10.7345946 68.0596757,10.7330811 68.1111351,10.7141622 C68.1618378,10.696 68.2435676,10.6816216 68.2912432,10.6846486 C68.3381622,10.6869189 68.3676757,10.7126486 68.3548108,10.7444324 C68.3434595,10.7754595 68.3699459,10.8019459 68.4145946,10.8042162 C68.4607568,10.8064865 68.5621622,10.7981622 68.6408649,10.7860541 C68.7195676,10.7731892 68.8088649,10.7527568 68.8406486,10.7398919 L68.9269189,10.696 C68.9435676,10.6838919 68.988973,10.6732973 69.0275676,10.6732973 C69.0669189,10.6732973 69.1123243,10.6937297 69.1297297,10.7179459 C69.1463784,10.7429189 69.2038919,10.8004324 69.2576216,10.8458378 C69.3113514,10.8912432 69.4059459,10.9464865 69.468,10.9661622 C69.5300541,10.9865946 69.6125405,11.0183784 69.6518919,11.0380541 C69.6912432,11.056973 69.7192432,11.0917838 69.7131892,11.1167568 L69.7313514,11.2 C69.7472432,11.2204324 69.8456216,11.2423784 69.9485405,11.2484324 C70.0522162,11.2544865 70.1952432,11.2635676 70.2656216,11.2673514 C70.3352432,11.2711351 70.4593514,11.2612973 70.5395676,11.2446486 C70.6197838,11.2287568 70.6984865,11.1962162 70.7128649,11.1742703 C70.7272432,11.1508108 70.6765405,11.0985946 70.5993514,11.056973 C70.5236757,11.0153514 70.388973,10.9517838 70.3027027,10.9131892 C70.2156757,10.8761081 70.0832432,10.8132973 70.0090811,10.7739459 C69.9349189,10.7353514 69.8327568,10.664973 69.7828108,10.6165405 C69.7343784,10.5688649 69.6397838,10.5166486 69.5731892,10.5 C69.5065946,10.4833514 69.3779459,10.4455135 69.2871351,10.4137297 C69.1963243,10.3827027 69.076,10.3509189 69.0207568,10.3425946" id="Fill-8"></path>
                    <path d="M70.9981622,11.3801081 L70.9459459,11.2900541 L70.9308108,11.2181622 L71.0095135,11.1508108 C71.039027,11.1364324 71.1094054,11.1485405 71.1684324,11.1772973 C71.2259459,11.2052973 71.3107027,11.2227027 71.3553514,11.2143784 C71.4007568,11.2060541 71.487027,11.2105946 71.5468108,11.2257297 C71.6073514,11.2401081 71.708,11.284 71.7730811,11.3233514 C71.8366486,11.3634595 71.9388108,11.4081081 71.9985946,11.4255135 C72.0583784,11.4414054 72.1469189,11.4784865 72.1938378,11.5072432 C72.2415135,11.536 72.2770811,11.592 72.2732973,11.6313514 C72.2687568,11.6707027 72.24,11.7161081 72.208973,11.7335135 L72.1219459,11.7214054 L72.0659459,11.6472432 C72.0523243,11.6283243 71.9804324,11.6215135 71.9085405,11.6313514 C71.8358919,11.6419459 71.7185946,11.6555676 71.6482162,11.6608649 C71.5778378,11.6676757 71.5104865,11.7145946 71.4983784,11.7668108 C71.4855135,11.819027 71.4507027,11.8523243 71.4189189,11.8417297 L71.3364324,11.7584865 L71.2652973,11.6994595 L71.1752432,11.7138378 L71.0988108,11.7554595 L71.0284324,11.7774054 L70.9716757,11.7403243 L70.9005405,11.7297297 L70.8142703,11.8001081 L70.7385946,11.8114595 L70.6447568,11.7062703 L70.5925405,11.5791351 L70.640973,11.5072432 C70.6697297,11.5034595 70.7325405,11.5148108 70.7802162,11.532973 C70.8278919,11.5526486 70.8869189,11.5571892 70.9118919,11.5443243 L70.983027,11.4807568 L70.9981622,11.3801081" id="Fill-9"></path>
                    <path d="M69.776,11.5677838 C69.8002162,11.5715676 69.856973,11.5806486 69.8993514,11.5859459 C69.9432432,11.592 70.0158919,11.6109189 70.0612973,11.6275676 C70.1074595,11.6442162 70.164973,11.6782703 70.1891892,11.7032432 L70.2088649,11.784973 L70.1331892,11.8341622 L70.0242162,11.8568649 C69.9909189,11.8629189 69.9303784,11.8583784 69.8887568,11.8455135 C69.8471351,11.8334054 69.7676757,11.8046486 69.7116757,11.7811892 C69.6556757,11.7584865 69.5966486,11.7221622 69.58,11.6994595 L69.5845405,11.6192432 L69.6738378,11.5715676 L69.776,11.5677838" id="Fill-10"></path>
                </g>
            </g>
        </g>
    </g>
</svg>